<?xml version="1.0" encoding="UTF-8"?>
<svg xmlns="http://www.w3.org/2000/svg" xmlns:xlink="http://www.w3.org/1999/xlink" width="30pt" height="30pt" viewBox="0 0 30 30" version="1.1">
<g id="surface1">
<path style=" stroke:none;fill-rule:nonzero;fill:rgb(0%,0%,0%);fill-opacity:1;" d="M 27.5625 0.0898438 L 8.8125 5.625 C 8.03125 5.871094 7.5 6.59375 7.5 7.414062 L 7.5 22.730469 C 6.886719 22.582031 6.257812 22.503906 5.625 22.5 C 2.519531 22.5 0 24.179688 0 26.25 C 0 28.320312 2.519531 30 5.625 30 C 8.730469 30 11.25 28.320312 11.25 26.25 L 11.25 12.558594 L 26.25 8.164062 L 26.25 18.980469 C 25.636719 18.832031 25.007812 18.753906 24.375 18.75 C 21.269531 18.75 18.75 20.429688 18.75 22.5 C 18.75 24.570312 21.269531 26.25 24.375 26.25 C 27.480469 26.25 30 24.570312 30 22.5 L 30 1.875 C 30 1.277344 29.714844 0.71875 29.234375 0.363281 C 28.75 0.0117188 28.128906 -0.0898438 27.5625 0.0898438 Z M 27.5625 0.0898438 "/>
</g>
</svg>
